# xmcd
#
# Track frame offsets:
#	150
#	9081
#	27703
#	50265
#	70514
#	95218
#	123199
#	142076
#	177390
#	197766
#	230402
#	257103
#	278064
#	303565
#
# Disc length: 4512 seconds
#
# Revision: 0
# Processed by: cddbd v1.5.2PL0 Copyright (c) Steve Scherf et al.
# Submitted via: dBpowerAMP V4.0
#
DISCID=c5119e0e
DTITLE=Robi Zonca and is Band feat. Luther Kent - Magic Box
DYEAR=2006
DGENRE=Blues
TTITLE0=Presentation by Bob Putignano
TTITLE1=New York City Blues
TTITLE2=Nothung
TTITLE3=Just a little bit
TTITLE4=I will love you anyway
TTITLE5=Flip flop and fly
TTITLE6=Teeny weeny bit
TTITLE7=Let's straighten it out
TTITLE8=Sick and tired
TTITLE9=99 woman
TTITLE10=Hoocie Coochie man
TTITLE11=Big legged woman
TTITLE12=Nothing you can do
TTITLE13=Pockey way
EXTD=LanfranTo.it
EXTT0=
EXTT1=
EXTT2=
EXTT3=
EXTT4=
EXTT5=
EXTT6=
EXTT7=
EXTT8=
EXTT9=
EXTT10=
EXTT11=
EXTT12=
EXTT13=
PLAYORDER=
